<svg xmlns="http://www.w3.org/2000/svg" viewBox="0 0 500 500" width="500" height="500">
    
    <defs>
      <linearGradient id="bg" x1="0" y1="0" x2="1" y2="1">
        <stop offset="0" stop-color="#1A2332"></stop>
        <stop offset="1" stop-color="#11182A"></stop>
      </linearGradient>
      <linearGradient id="curveFade" x1="0" y1="0" x2="1" y2="0">
        <stop offset="0" stop-color="#3DDBA8" stop-opacity="0.14"></stop>
        <stop offset="0.7" stop-color="#3DDBA8" stop-opacity="0.06"></stop>
        <stop offset="1" stop-color="#3DDBA8" stop-opacity="0"></stop>
      </linearGradient>
    </defs>
    <rect width="500" height="500" fill="url(#bg)"></rect>

    
    <path d="M -20 180 Q 80 180 150 260 T 320 380 T 560 440" fill="none" stroke="url(#curveFade)" stroke-width="3"></path>
    <path d="M -20 140 Q 100 140 190 240 T 360 360 T 560 420" fill="none" stroke="#3DDBA8" stroke-opacity="0.05" stroke-width="2"></path>

    
    <g transform="translate(150 60)">
      
      <g transform="scale(2)">
        <rect width="100" height="100" rx="18" ry="18" fill="#11182A" stroke="#3DDBA8" stroke-opacity="0.18" stroke-width="0.5"></rect>
        <g transform="rotate(-25 72 28)">
          <ellipse cx="72" cy="28" rx="11" ry="16" fill="#3DDBA8"></ellipse>
          <path d="M 72 14 Q 66 22 72 28 T 72 42" fill="none" stroke="#11182A" stroke-width="3" stroke-linecap="round"></path>
        </g>
        <path d="M 16 28 Q 28 28 38 48 T 58 72 T 86 82" fill="none" stroke="#3DDBA8" stroke-width="7" stroke-linecap="round"></path>
        <line x1="14" y1="86" x2="86" y2="86" stroke="#3DDBA8" stroke-width="2" stroke-linecap="round" opacity="0.25"></line>
      </g>
    </g>

    
    <text x="250" y="340" text-anchor="middle" font-family="Helvetica, Arial, sans-serif" font-weight="700" font-size="44" fill="#ffffff" letter-spacing="-1">HalfLife</text>
    <text x="250" y="380" text-anchor="middle" font-family="Helvetica, Arial, sans-serif" font-weight="400" font-size="32" fill="#3DDBA8" letter-spacing="6">CAFFEINE</text>

    
    <text x="250" y="428" text-anchor="middle" font-family="Helvetica, Arial, sans-serif" font-weight="400" font-size="16" fill="#ffffff" fill-opacity="0.6" letter-spacing="2">TRACK  ·  DECAY  ·  SLEEP</text>

    
    <line x1="200" y1="452" x2="300" y2="452" stroke="#3DDBA8" stroke-width="1.5" opacity="0.4"></line>
  </svg>