<svg xmlns="http://www.w3.org/2000/svg" viewBox="0 0 500 500" width="500" height="500">
    <defs>
      <linearGradient id="bg2" x1="0" y1="0" x2="1" y2="1">
        <stop offset="0" stop-color="#1A2332"></stop>
        <stop offset="1" stop-color="#11182A"></stop>
      </linearGradient>
    </defs>
    <rect width="500" height="500" fill="url(#bg2)"></rect>
    
    <g transform="translate(-50 -50) scale(6)" opacity="0.04">
      <path d="M 16 28 Q 28 28 38 48 T 58 72 T 86 82" fill="none" stroke="#3DDBA8" stroke-width="7" stroke-linecap="round"></path>
    </g>
    
    <g transform="translate(130 100)">
      <g transform="scale(2.4)">
        <rect width="100" height="100" rx="18" ry="18" fill="#11182A"></rect>
        <g transform="rotate(-25 72 28)">
          <ellipse cx="72" cy="28" rx="11" ry="16" fill="#3DDBA8"></ellipse>
          <path d="M 72 14 Q 66 22 72 28 T 72 42" fill="none" stroke="#11182A" stroke-width="3" stroke-linecap="round"></path>
        </g>
        <path d="M 16 28 Q 28 28 38 48 T 58 72 T 86 82" fill="none" stroke="#3DDBA8" stroke-width="7" stroke-linecap="round"></path>
        <line x1="14" y1="86" x2="86" y2="86" stroke="#3DDBA8" stroke-width="2" stroke-linecap="round" opacity="0.25"></line>
      </g>
    </g>
    <text x="250" y="430" text-anchor="middle" font-family="Helvetica, Arial, sans-serif" font-weight="700" font-size="32" fill="#ffffff" letter-spacing="-0.5">HalfLife Caffeine</text>
    <text x="250" y="458" text-anchor="middle" font-family="Helvetica, Arial, sans-serif" font-weight="400" font-size="14" fill="#3DDBA8" letter-spacing="3">TRACK · DECAY · SLEEP</text>
  </svg>